<?xml version="1.0" encoding="UTF-8"?>
<svg id="a" data-name="Layer 1" xmlns="http://www.w3.org/2000/svg" width="1000" height="330.631" viewBox="0 0 1000 330.631">
  <g>
    <path d="M70.879,117.437h10.096c14.829,0,27.473-2.488,37.933-7.451,10.448-4.963,18.53-11.831,24.233-20.617s8.555-19.1,8.555-30.944-2.852-22.097-8.555-30.786c-5.703-8.689-13.785-15.472-24.233-20.338C108.448,2.436,95.804-.003,80.975-.003H0v206.23h30.228v-88.79h2.912l85.477,88.79h43.345l-91.083-88.79ZM30.228,92.804V24.922h49.898c13.87,0,24.33,2.961,31.368,8.87,7.026,5.922,10.545,14.234,10.545,24.925s-3.568,19.052-10.691,25.058c-7.135,6.019-17.535,9.028-31.223,9.028H30.228Z"/>
    <polygon points="622.342 -.003 622.342 206.227 587.273 206.227 496.178 42.093 496.178 206.227 467.103 206.227 467.103 -.003 502.172 -.003 593.256 164.107 593.256 -.003 622.342 -.003"/>
    <path d="M364.942,206.227L404.377.002h32.009l-39.435,206.225h-32.009Z"/>
    <path d="M258.978,206.227c-16.267,0-30.488-3.135-42.664-9.405-12.178-6.27-21.604-14.879-28.283-25.83-6.679-10.949-10.018-23.512-10.018-37.688V6.26h31.077v124.455c0,9.179,2.021,17.311,6.066,24.398,4.042,7.088,9.79,12.677,17.242,16.766,7.45,4.089,16.31,6.134,26.58,6.134,10.176,0,18.968-2.045,26.375-6.134,7.405-4.089,13.106-9.678,17.106-16.766,3.998-7.087,5.998-15.218,5.998-24.398V6.26h31.213v127.045c0,14.176-3.339,26.74-10.018,37.688-6.679,10.951-16.084,19.56-28.215,25.83-12.131,6.27-26.285,9.405-42.459,9.405Z"/>
    <path d="M660.214,206.227V-.001h133.722v27.128h-102.165v61.453h95.105v26.99h-95.105v63.529h102.995v27.128h-134.552Z"/>
    <path d="M986.458,48.257c-9.028-15.363-21.721-27.255-38.067-35.652C932.033,4.196,912.836-.003,890.787-.003h-58.15v206.23h58.429c21.867,0,40.93-4.296,57.179-12.887,16.248-8.591,28.941-20.666,38.067-36.234,9.125-15.557,13.688-33.747,13.688-54.57s-4.514-38.904-13.542-54.279ZM959.798,143.211c-6.274,11.844-15.266,21.102-26.951,27.789-11.686,6.686-25.714,10.023-42.059,10.023h-27.922V25.201h27.922c16.54,0,30.652,3.204,42.338,9.599,11.698,6.395,20.629,15.326,26.806,26.781,6.177,11.455,9.271,24.925,9.271,40.384,0,15.666-3.131,29.415-9.404,41.246Z"/>
  </g>
  <g>
    <path d="M223.441,289.484h-8.462l-15.145,41.143h7.321l3.532-10.228h16.653l3.532,10.228h7.647l-15.077-41.143ZM212.737,314.464l6.289-18.188,6.275,18.188h-12.564Z"/>
    <polygon points="261.093 295.366 261.093 308.229 280.354 308.229 280.354 314.11 261.093 314.11 261.093 330.627 253.663 330.627 253.663 289.484 281.726 289.484 281.726 295.366 261.093 295.366"/>
    <path d="M309.384,330.631v-35.26h-13.658v-5.887h34.746v5.887h-13.659v35.26h-7.43Z"/>
    <polygon points="375.218 324.746 375.218 330.627 345.62 330.627 345.62 289.484 374.593 289.484 374.593 295.366 353.05 295.366 353.05 306.572 373.221 306.572 373.221 312.345 353.05 312.345 353.05 324.746 375.218 324.746"/>
    <path d="M407.708,313.309h.258c2.934,0,5.488-.489,7.661-1.481,2.16-.992,3.83-2.377,4.999-4.17,1.155-1.793,1.739-3.871,1.739-6.235,0-2.391-.584-4.496-1.739-6.289-1.168-1.779-2.839-3.178-4.999-4.17-2.173-.992-4.727-1.481-7.661-1.481h-17.373v41.143h7.43v-17.318h1.005l15.104,17.318h10.296l-16.721-17.318ZM398.024,307.658v-12.293h9.712c2.431,0,4.292.53,5.542,1.576,1.263,1.046,1.888,2.54,1.888,4.482s-.638,3.477-1.915,4.577c-1.277,1.1-3.11,1.657-5.515,1.657h-9.712Z"/>
    <path d="M471.454,330.631v-35.26h-13.658v-5.887h34.746v5.887h-13.659v35.26h-7.43Z"/>
    <polygon points="542.031 289.484 542.031 330.627 534.601 330.627 534.601 312.114 515.109 312.114 515.109 330.627 507.679 330.627 507.679 289.484 515.109 289.484 515.109 306.287 534.601 306.287 534.601 289.484 542.031 289.484"/>
    <polygon points="588.716 324.746 588.716 330.627 559.118 330.627 559.118 289.484 588.091 289.484 588.091 295.366 566.548 295.366 566.548 306.572 586.719 306.572 586.719 312.345 566.548 312.345 566.548 324.746 588.716 324.746"/>
    <polygon points="633.581 295.366 633.581 308.229 652.841 308.229 652.841 314.11 633.581 314.11 633.581 330.627 626.151 330.627 626.151 289.484 654.213 289.484 654.213 295.366 633.581 295.366"/>
    <polygon points="699.703 324.746 699.703 330.627 670.092 330.627 670.092 289.484 699.078 289.484 699.078 295.366 677.522 295.366 677.522 306.572 697.706 306.572 697.706 312.345 677.522 312.345 677.522 324.746 699.703 324.746"/>
    <path d="M737.138,289.484h-8.462l-15.145,41.143h7.321l3.532-10.228h16.653l3.532,10.228h7.647l-15.077-41.143ZM726.434,314.464l6.289-18.188,6.275,18.188h-12.564Z"/>
    <path d="M783.456,313.309h.258c2.934,0,5.488-.489,7.647-1.481,2.173-.992,3.844-2.377,5.012-4.17,1.155-1.793,1.739-3.871,1.739-6.235,0-2.391-.584-4.496-1.739-6.289-1.168-1.779-2.839-3.178-5.012-4.17-2.16-.992-4.713-1.481-7.647-1.481h-17.373v41.143h7.43v-17.318h.992l15.118,17.318h10.282l-16.707-17.318ZM773.771,307.658v-12.293h9.712c2.431,0,4.279.53,5.542,1.576s1.888,2.54,1.888,4.482-.638,3.477-1.915,4.577-3.124,1.657-5.515,1.657h-9.712Z"/>
  </g>
</svg>